<svg id="eXNhvHEK5Ci1" xmlns="http://www.w3.org/2000/svg" xmlns:xlink="http://www.w3.org/1999/xlink" viewBox="0 0 1920 1080" shape-rendering="geometricPrecision" text-rendering="geometricPrecision">
<rect width="1700" height="500" rx="10" ry="10" transform="matrix(1.058824 0 0 1 49.9996 20)" fill="none" stroke="#fff" stroke-width="10" stroke-linejoin="round"/>
<rect width="1700" height="500" rx="10" ry="10" transform="matrix(1.058824 0 0 1 49.9996 550)" fill="none" stroke="#fff" stroke-width="10" stroke-linejoin="round"/>
<path d="" transform="translate(0 450)" fill="none" stroke="#3f5787" stroke-width="3.84"/><line x1="-850" y1="0" x2="850" y2="0" transform="matrix(1.058824 0 0 1 950 600)" fill="none" stroke="#fff" stroke-width="36"/>
<line x1="-850" y1="0" x2="850" y2="0" transform="matrix(1.058824 0 0 1 950 647.534273)" fill="none" stroke="#fff" stroke-width="4"/>
<line x1="-850" y1="0" x2="850" y2="0" transform="matrix(1.058824 0 0 1 950 997.534272)" fill="none" stroke="#fff" stroke-width="4"/>
<line x1="-850" y1="0" x2="900" y2="0" transform="matrix(0 0.2 1 0 500 817.534273)" fill="none" stroke="#fff" stroke-width="4"/>
<line x1="-850" y1="0" x2="900" y2="0" transform="matrix(0 0.2 1 0 300 817.534273)" fill="none" stroke="#fff" stroke-width="4"/>
<line x1="-850" y1="0" x2="900" y2="0" transform="matrix(0 0.2 1 0 1250 817.534272)" fill="none" stroke="#fff" stroke-width="4"/>
<line x1="-850" y1="0" x2="900" y2="0" transform="matrix(0 0.2 1 0 1450 817.534273)" fill="none" stroke="#fff" stroke-width="4"/>
<path d="" transform="translate(0-80)" fill="none" stroke="#3f5787" stroke-width="3.84"/><line x1="-850" y1="0" x2="850" y2="0" transform="matrix(1.058824 0 0 1 950 470)" fill="none" stroke="#fff" stroke-width="36"/>
<line x1="-850" y1="0" x2="850" y2="0" transform="matrix(1.058824 0 0 1 950 70)" fill="none" stroke="#fff" stroke-width="4"/>
<line x1="-850" y1="0" x2="850" y2="0" transform="matrix(.352942 0 0 1 350.0003 170)" fill="none" stroke="#fff" stroke-width="4"/>
<line x1="-850" y1="0" x2="850" y2="0" transform="matrix(1.058824 0 0 1 950 420)" fill="none" stroke="#fff" stroke-width="4"/>
<line x1="-850" y1="0" x2="900" y2="0" transform="matrix(0 0.2 1 0 650 240)" fill="none" stroke="#fff" stroke-width="4"/>
<line x1="-850" y1="0" x2="900" y2="0" transform="matrix(0 0.2 1 0 850 240)" fill="none" stroke="#fff" stroke-width="4"/>
<line x1="-850" y1="0" x2="900" y2="0" transform="matrix(0 0.2 1 0 450 240)" fill="none" stroke="#fff" stroke-width="4"/>
<line x1="-850" y1="0" x2="900" y2="0" transform="matrix(0 0.2 1 0 1250 240)" fill="none" stroke="#fff" stroke-width="4"/>
<line x1="-850" y1="0" x2="900" y2="0" transform="matrix(0 0.2 1 0 1450 240)" fill="none" stroke="#fff" stroke-width="4"/>
<line x1="-850" y1="0" x2="893.587956" y2="0" transform="matrix(.229412 0 0 1 1645 170)" fill="none" stroke="#fff" stroke-width="4"/>
<line x1="-850" y1="0" x2="808.532944" y2="0" transform="matrix(.241177 0 0 1 1655.0002 900)" fill="none" stroke="#fff" stroke-width="4"/>
<g><ellipse rx="150" ry="150" transform="translate(1050.001 250)" fill="none" stroke="#fff" stroke-width="4"/>
<rect width="140.72643" height="109.999505" rx="0" ry="0" transform="matrix(.497419 0 0 0.181819 950 240)" fill="none" stroke="#fff" stroke-width="5"/>
<rect width="130" height="54.9995" rx="0" ry="0" transform="matrix(0 0.461539-.54546 0 1120.000028 155)" fill="none" stroke="#fff" stroke-width="5"/>
<rect width="112.899523" height="54.9995" rx="0" ry="0" transform="matrix(0 0.531446-.54546 0 1120.000028 285)" fill="none" stroke="#fff" stroke-width="5"/></g>
<g transform="translate(.000023 574.9995)"><ellipse rx="150" ry="150" transform="translate(1050.001 250)" fill="none" stroke="#fff" stroke-width="4"/>
<rect width="140.72643" height="109.999505" rx="0" ry="0" transform="matrix(.497419 0 0 0.181819 950 240)" fill="none" stroke="#fff" stroke-width="5"/>
<rect width="130" height="54.9995" rx="0" ry="0" transform="matrix(0 0.461539-.54546 0 1120.000028 155)" fill="none" stroke="#fff" stroke-width="5"/>
<rect width="112.899523" height="54.9995" rx="0" ry="0" transform="matrix(0 0.531446-.54546 0 1120.000028 285)" fill="none" stroke="#fff" stroke-width="5"/></g>
<g transform="matrix(-1 0 0-1 1740.000977 1072.534273)"><ellipse rx="150" ry="150" transform="translate(1050.001 250)" fill="none" stroke="#fff" stroke-width="4"/>
<rect width="140.72643" height="109.999505" rx="0" ry="0" transform="matrix(.497419 0 0 0.181819 950 240)" fill="none" stroke="#fff" stroke-width="5"/>
<rect width="130" height="54.9995" rx="0" ry="0" transform="matrix(0 0.461539-.54546 0 1120.000028 155)" fill="none" stroke="#fff" stroke-width="5"/>
<rect width="112.899523" height="54.9995" rx="0" ry="0" transform="matrix(0 0.531446-.54546 0 1120.000028 285)" fill="none" stroke="#fff" stroke-width="5"/></g>
<rect width="140" height="54.9995" rx="5" ry="5" transform="translate(180 94.0005)" fill="none" stroke="#fff" stroke-width="4"/>
<rect width="140" height="54.9995" rx="5" ry="5" transform="translate(1580 94.0005)" fill="none" stroke="#fff" stroke-width="4"/>
<rect width="140" height="54.9995" rx="5" ry="5" transform="translate(680 94.0005)" fill="none" stroke="#fff" stroke-width="4"/>
<rect width="140" height="54.9995" rx="5" ry="5" transform="translate(1280 920)" fill="none" stroke="#fff" stroke-width="4"/>
<rect width="140" height="54.9995" rx="5" ry="5" transform="translate(1580 920)" fill="none" stroke="#fff" stroke-width="4"/>
<line x1="0" y1="-25" x2="0" y2="25" transform="translate(900 45)" fill="none" stroke="#fff" stroke-width="4"/>
<line x1="0" y1="-25" x2="0" y2="25" transform="translate(1000 45)" fill="none" stroke="#fff" stroke-width="4"/>
<line x1="0" y1="-25" x2="0" y2="25" transform="translate(1000 1022.534273)" fill="none" stroke="#fff" stroke-width="4"/>
<line x1="0" y1="-25" x2="0" y2="25" transform="translate(900 1022.534273)" fill="none" stroke="#fff" stroke-width="4"/>
<rect width="150" height="180" rx="5" ry="5" transform="translate(475 205)" fill="none" stroke="#fff" stroke-width="5"/>
<rect width="35" height="50" rx="0" ry="0" transform="translate(475 270)" fill="#fff" stroke-width="0"/>
<rect width="120.000949" height="140" rx="0" ry="0" transform="matrix(.833327 0 0 0.857143 510 235)" fill="none" stroke="#fff" stroke-width="4"/>
<rect width="20" height="100" rx="0" ry="0" transform="matrix(1 0 0 0.9 580 250)" fill="#fff" stroke-width="0"/>
<rect width="20" height="100" rx="0" ry="0" transform="matrix(1 0 0 0.9 780.000977 250)" fill="#fff" stroke-width="0"/>
<rect width="120" height="150.00002" rx="5" ry="5" transform="translate(689.999977 220)" fill="none" stroke="#fff" stroke-width="5"/>
<rect width="40.000023" height="40" rx="0" ry="0" transform="translate(689.999977 220)" fill="none" stroke="#fff" stroke-width="4"/>
<rect width="40.000023" height="40" rx="0" ry="0" transform="translate(689.999977 330)" fill="none" stroke="#fff" stroke-width="4"/>
<rect width="60" height="120" rx="5" ry="5" transform="translate(1320 680)" fill="none" stroke="#fff" stroke-width="5"/>
<rect width="30" height="60" rx="5" ry="5" transform="translate(1335 825)" fill="none" stroke="#fff" stroke-width="5"/>
<rect width="10" height="40" rx="5" ry="5" transform="translate(1345 835)" fill="none" stroke="#fff" stroke-width="5"/>
<rect width="30" height="120" rx="5" ry="5" transform="translate(1350 680)" fill="#fff" stroke-width="0"/>
</svg>
